<svg id="natuur" xmlns="http://www.w3.org/2000/svg" xmlns:xlink="http://www.w3.org/1999/xlink" viewBox="0 0 107.3 65.4"><defs><style>.cls-1,.cls-2,.cls-4{fill:none;}.cls-2,.cls-4{stroke:#2a7560;stroke-miterlimit:10;}.cls-3{clip-path:url(#clip-path);}.cls-4{stroke-width:5px;}.cls-5{clip-path:url(#clip-path-2);}</style>
<clipPath id="clip-path" transform="translate(-458.9 -277.6)">
	<path id="truue" class="cls-1" d="M564.3,323.1l-1.1-.3-1.1-.2h-.9a8.5,8.5,0,0,0-2.3.3,5,5,0,0,0-2,.8,3.1,3.1,0,0,0,.1-.9,4.3,4.3,0,0,1,.1-.5.7.7,0,0,0-.7-.8c-.3,0-.7.3-1.3,1l-1.5,2.1-.7.5a6.9,6.9,0,0,1-2.1.9h-.3a.6.6,0,0,1-.7-.7.6.6,0,0,1,.1-.4l1.2-1a1.9,1.9,0,0,0,1-1l.3-.6a1,1,0,0,0-.4-.7.7.7,0,0,0-.6-.2,2.1,2.1,0,0,0-1.1.4l-1.1.7-1.4,1a23.6,23.6,0,0,1-2.3,1.3l-2.3,1.2-1.5.5-.7-.2a.9.9,0,0,1-.3-.6c0-.3.2-.6.6-1l.8-.8.7-.9a1,1,0,0,0,.4-.9,1.3,1.3,0,0,0-1-1,3,3,0,0,0-1.4.7l-1.3,1.1a5.2,5.2,0,0,0-.6,1.6l-1,.6a5.2,5.2,0,0,1-2.1.9h-.2a.6.6,0,0,1-.7-.7.6.6,0,0,1,.1-.4l1.2-1a2.4,2.4,0,0,0,1-1l.3-.6a1,1,0,0,0-.4-.7.7.7,0,0,0-.6-.2,2.1,2.1,0,0,0-1.1.4l-1.1.7-1.4,1-2.3,1.3-2.3,1.2a4.7,4.7,0,0,1-1.6.5l-.6-.2a.9.9,0,0,1-.3-.6c0-.3.2-.6.6-1l.8-.8.7-.9a1,1,0,0,0,.4-.9,1.3,1.3,0,0,0-1-1,3,3,0,0,0-1.4.7l-1.3,1.1a7.7,7.7,0,0,0-.7,1.7l-1,.8-1.9,1.4-1.9,1.1a2.1,2.1,0,0,1-1.3.5l-.5-.2a1.1,1.1,0,0,1-.1-.5,4.5,4.5,0,0,1,.5-1.8l1-1.4c1-1.5,2-2.9,3.1-4.3l3.4-4.2a2.4,2.4,0,0,1,1-.8l1.2-.5a9.3,9.3,0,0,1,2.3-.4l2.3-.3c3-.6,6-1.1,9-1.4l9.1-1.2a12.4,12.4,0,0,0,3.1-.6c0-.1-.4-.2-1.1-.2a111.2,111.2,0,0,0-11.6.6c-3.9.4-7.8,1-11.7,1.6h-.7c.1,0,.1-.2.1-.3s.1-.3.2-.4a17.1,17.1,0,0,0,1.1-1.4l1.1-1.8a1.3,1.3,0,0,0-1-1c-.2,0-.4.2-.6.4a2.4,2.4,0,0,0-.6.8l-.7.8-2.5,2.7a5.9,5.9,0,0,1-3.4,1.5,42.1,42.1,0,0,0-6,1.1,31,31,0,0,1-6.1.9l-1.3.3a3,3,0,0,1-1.3.2h-.9a.8.8,0,0,0-.7.4,1.1,1.1,0,0,0-.3.7,1.9,1.9,0,0,0,.5,1c.4.4.7.6,1,.6h.7l.7-.2c4.2-1.2,8.6-2.2,13-3h.7a.5.5,0,0,1,.5.5,2.9,2.9,0,0,1-.6,1l-1.2,1.6-1.3,1.7a4.8,4.8,0,0,1-.9,1l-2.1,3-.3.4-.7.6-1.5,1.1-1.7,1a2.7,2.7,0,0,1-1.3.4c-.2,0-.3,0-.3-.2s-.2-.3-.2-.5a3.1,3.1,0,0,1,.5-1.1,11.5,11.5,0,0,1,.7-1.1,1.6,1.6,0,0,0,.3-.8,1.3,1.3,0,0,0-.4-1l-.9-.7-1.2-.5-1-.2A4.7,4.7,0,0,0,505,323a13.6,13.6,0,0,0-1.2,1.2l-1.4,1.4a9.1,9.1,0,0,0-1.1,1.6,3.3,3.3,0,0,0-.5,1.6,2.1,2.1,0,0,0,.5,1.3l1.4,1.1a1.7,1.7,0,0,0,1.1.4,1.1,1.1,0,0,0,.7-.3l.9-.6a6,6,0,0,0,.8-.8l.7-.6c.2-.3.4-.5.7-.5s.4.2.6.5a2.2,2.2,0,0,0,1.8,1.1,4.6,4.6,0,0,0,2.1-.7l2.6-1.6.3-.2a3.2,3.2,0,0,0,.8,2.1,2.4,2.4,0,0,0,2.1,1,3.2,3.2,0,0,0,1.6-.6l2-1.4,1.9-1.7.6-.5a1.9,1.9,0,0,0,.5,1,2.1,2.1,0,0,0,1.9,1h.7a1.6,1.6,0,0,0,.9-.3,7,7,0,0,0,1.7-.9l1.6-1,.4-.2h.4a1.4,1.4,0,0,1,.9.4,2.8,2.8,0,0,0,2.4,1.4,3.9,3.9,0,0,0,1.8-.4l1-.5.6-.5a2.4,2.4,0,0,0,.6,1.1,2.1,2.1,0,0,0,1.9,1h.7a1.6,1.6,0,0,0,.9-.3,7,7,0,0,0,1.7-.9l1.6-1,.5-.2h.3a1.2,1.2,0,0,1,.9.4,2.8,2.8,0,0,0,2.4,1.4l1.4-.3a5.8,5.8,0,0,0-.4,1.3.5.5,0,0,0,.4.5.9.9,0,0,0,.7.3,1.1,1.1,0,0,0,.7-.3l.4-.5.4-.6a18.8,18.8,0,0,1,2-2,11.3,11.3,0,0,1,2.1-1.2l2.4-.6h2.8a1.7,1.7,0,0,0,1.2-.3.7.7,0,0,0,.4-.6A.7.7,0,0,0,564.3,323.1Zm-55.8,2.4-1.6,1.4-1.8,1.3-1.2.8h-.2c-.3,0-.4-.2-.4-.5a2.4,2.4,0,0,1,.6-1.3l1.4-1.5,1.7-1.3a3.1,3.1,0,0,1,1.3-.5h.6c.2.1.3.2.3.4S509,325,508.5,325.5Z"/></clipPath>
	<clipPath id="clip-path-2" transform="translate(-458.9 -277.6)">
		<path id="n" class="cls-2" d="M551.8,280.1a4.3,4.3,0,0,0-2.6-.9,5.7,5.7,0,0,0-1.8.3l-1.8.6-1.6.8-1.4.7a95.1,95.1,0,0,0-12.5,7.2,128.8,128.8,0,0,0-12,9.3,119.9,119.9,0,0,0-10.6,10.8,75.5,75.5,0,0,0-8.1,11.5l-1,1.4c.5-2.7,1-5.4,1.7-8a52.7,52.7,0,0,0,1.5-8.1,15.5,15.5,0,0,1,1.1-4.6,7.3,7.3,0,0,0,.8-2.6.9.9,0,0,0-.4-.8,1.2,1.2,0,0,0-.9-.3c-.4,0-.8.4-1.1,1.1a13.9,13.9,0,0,1-1.7,2.9l-4,5.9c-1.5,2.2-3.1,4.5-4.8,6.8l-5.3,7.2c-1.9,2.4-3.7,4.6-5.6,6.7a76.6,76.6,0,0,1-5.7,5.7,26.6,26.6,0,0,1-5.4,4.1l-2.2,1.1-1.3.3c-.5,0-.8-.1-.9-.5a.8.8,0,0,0-.8-.4l-.7.2-.9.4-.8.6a.9.9,0,0,0-.3.5.7.7,0,0,0,.4.7l1.1.5,1.2.2h.8a12,12,0,0,0,5.7-1.7,34.3,34.3,0,0,0,6-4.6,57.3,57.3,0,0,0,5.9-6.1,78.3,78.3,0,0,0,5.4-6.6c1.6-2.1,3.1-4.1,4.3-5.9l2.9-4.1.6-.8c.2-.5.6-.9.9-1.5l1.2-1.7a18.3,18.3,0,0,0,1.3-1.6c.4-.5.7-.8.9-.8h.1v.8a89.5,89.5,0,0,1-3.6,15.5c-1.6,5-3.3,9.9-5.2,14.9a3.9,3.9,0,0,0-.3,1.4q0,1.2.9,1.2c.6,0,1.1-.4,1.4-1.3a48.3,48.3,0,0,1,1.7-4.9c.8-1.7,1.6-3.5,2.5-5.2s1.9-3.4,2.8-5l2.6-4.2a114.5,114.5,0,0,1,8.5-10.8A110.2,110.2,0,0,1,521,298.4a121.8,121.8,0,0,1,11.5-8.9,89.3,89.3,0,0,1,11.9-6.7l2.6-1.1a5.7,5.7,0,0,1,2.4-.5,2,2,0,0,1,1.3.4,2.7,2.7,0,0,1,1,1.4c.2.5.4.7.6.7s.7-.4.7-1.3A2.6,2.6,0,0,0,551.8,280.1Z"/></clipPath></defs><title>natuur</title><g id="truue_mask"><g class="cls-3"><path id="a" class="cls-4" d="M510,324s-3-4-8,4C503,335,510,324,510,324Z" transform="translate(-458.9 -277.6)"/><path id="t1" class="cls-4" d="M510,324s-7,20,21-17" transform="translate(-458.9 -277.6)"/><path id="t2" class="cls-4" d="M504,318s41-8,51-7" transform="translate(-458.9 -277.6)"/><path id="u1" class="cls-4" d="M517.5,323.9s-4.3,8.1,2.6,4.1,8.9-9,8.9-9" transform="translate(-458.9 -277.6)"/><path id="u2" class="cls-4" d="M524,325s0,7,14-4" transform="translate(-458.9 -277.6)"/><path id="u3" class="cls-4" d="M533,325s2,4,6.6,0a25.6,25.6,0,0,0,3.4-4" transform="translate(-458.9 -277.6)"/><path id="u4" class="cls-4" d="M540,325s-1,7,13-4" transform="translate(-458.9 -277.6)"/><path id="r1" class="cls-4" d="M548,325s4,7,9-5l-6,11" transform="translate(-458.9 -277.6)"/><path id="r2" class="cls-4" d="M554,326s1-3,12-2" transform="translate(-458.9 -277.6)"/></g></g><g id="n_mask"><g class="cls-5"><path id="n3" class="cls-4" d="M461,338s4,6,15-4,28-38,28-38" transform="translate(-458.9 -277.6)"/><path id="n2" class="cls-4" d="M500,303s3,9-11,39" transform="translate(-458.9 -277.6)"/><path id="n1" class="cls-4" d="M495,328s19-29,38-40,18-9,20-3" transform="translate(-458.9 -277.6)"/></g><path id="n-2" data-name="n" class="cls-2" d="M551.8,280.1a4.3,4.3,0,0,0-2.6-.9,5.7,5.7,0,0,0-1.8.3l-1.8.6-1.6.8-1.4.7a95.1,95.1,0,0,0-12.5,7.2,128.8,128.8,0,0,0-12,9.3,119.9,119.9,0,0,0-10.6,10.8,75.5,75.5,0,0,0-8.1,11.5l-1,1.4c.5-2.7,1-5.4,1.7-8a52.7,52.7,0,0,0,1.5-8.1,15.5,15.5,0,0,1,1.1-4.6,7.3,7.3,0,0,0,.8-2.6.9.9,0,0,0-.4-.8,1.2,1.2,0,0,0-.9-.3c-.4,0-.8.4-1.1,1.1a13.9,13.9,0,0,1-1.7,2.9l-4,5.9c-1.5,2.2-3.1,4.5-4.8,6.8l-5.3,7.2c-1.9,2.4-3.7,4.6-5.6,6.7a76.6,76.6,0,0,1-5.7,5.7,26.6,26.6,0,0,1-5.4,4.1l-2.2,1.1-1.3.3c-.5,0-.8-.1-.9-.5a.8.8,0,0,0-.8-.4l-.7.2-.9.4-.8.6a.9.9,0,0,0-.3.5.7.7,0,0,0,.4.7l1.1.5,1.2.2h.8a12,12,0,0,0,5.7-1.7,34.3,34.3,0,0,0,6-4.6,57.3,57.3,0,0,0,5.9-6.1,78.3,78.3,0,0,0,5.4-6.6c1.6-2.1,3.1-4.1,4.3-5.9l2.9-4.1.6-.8c.2-.5.6-.9.9-1.5l1.2-1.7a18.3,18.3,0,0,0,1.3-1.6c.4-.5.7-.8.9-.8h.1v.8a89.5,89.5,0,0,1-3.6,15.5c-1.6,5-3.3,9.9-5.2,14.9a3.9,3.9,0,0,0-.3,1.4q0,1.2.9,1.2c.6,0,1.1-.4,1.4-1.3a48.3,48.3,0,0,1,1.7-4.9c.8-1.7,1.6-3.5,2.5-5.2s1.9-3.4,2.8-5l2.6-4.2a114.5,114.5,0,0,1,8.5-10.8A110.2,110.2,0,0,1,521,298.4a121.8,121.8,0,0,1,11.5-8.9,89.3,89.3,0,0,1,11.9-6.7l2.6-1.1a5.7,5.7,0,0,1,2.4-.5,2,2,0,0,1,1.3.4,2.7,2.7,0,0,1,1,1.4c.2.5.4.7.6.7s.7-.4.7-1.3A2.6,2.6,0,0,0,551.8,280.1Z" transform="translate(-458.9 -277.6)"/></g></svg>