<svg id="dresses" xmlns="http://www.w3.org/2000/svg" viewBox="0 0 265.69 126.71"><defs><style>.cls-1{fill:none;stroke:#dddd7d;stroke-linecap:round;stroke-linejoin:round;stroke-width:4px;}</style></defs><path id="mask-d" class="cls-1" d="M183.92,449.25c-1.69,0-4.14.59-3.38-6.18s17.32-59.5,19.27-66.09L221,326.55l-26.85,55.64s-4.64-8.15-10.77-6.09-13.69,8.8-17.14,22.07c-3.94,15.17,7.16,11.19,9.29,10.05,3.3-1.77,20.59-15.7,19.82-25.94" transform="translate(-163.37 -324.55)"/><path id="mask-r" class="cls-1" d="M216.62,366.3s-6.65,6.45-7.45,10.95,1.91,6.64,6.38,7.65,9.07,5.48,2.68,17-2,15.75,2.74,16.6,21.38-10.33,38.26-37" transform="translate(-163.37 -324.55)"/><path id="mask-e" class="cls-1" d="M294.77,381.6C275.3,405.37,265.6,409.15,257.55,407s-3.84-14.57-3.84-14.57a29.3,29.3,0,0,0,11-3.88c5.34-3.36,9.78-9.33,5.6-11.28-10.35-4.83-16.61,15.16-16.61,15.16" transform="translate(-163.37 -324.55)"/><path id="mask-ss" class="cls-1" d="M303.17,367.65s-7.06,4.47-8.4,12.78,2.87,15.44,2.87,15.44,9.45,12.35-2.87,22.64-16.24-3,15.28-27.72c3.67-2.88,21.32-17,21.32-17s-12.16,3.05-.67,24.75c11.65,22-13,36-13,36s-13.47,3.19-7.63-11.61,49.06-43.85,56.37-45.61" transform="translate(-163.37 -324.55)"/><path id="mask-e2" class="cls-1" d="M356.74,384s8.65-9.59,13.95-6.13c3.22,2.11,1.42,7.22-4.4,10.82-16.61,10.25-9.55-4.69-9.55-4.69s-15.12,25.85,6,23.46c16.45-1.87,30-25.4,30-25.4" transform="translate(-163.37 -324.55)"/><path id="mask-s3" class="cls-1" d="M402.47,367.65s-12.75,6.47-8.4,20.26,8.69,16.44,6.19,27.11-12.17,24.16-22.42,18.72,19.08-40,49.23-51.69" transform="translate(-163.37 -324.55)"/></svg>