<?xml-stylesheet type="text/css" href="../css/style.css"?>
<svg xmlns="http://www.w3.org/2000/svg" viewBox="0 0 204.84 15.43">
    <clipPath id="btn_line">
        <path class="cls-1" d="M204.6,2.85c.3.07.19-.77.24-.92C204.33,2.12,204.61,3.07,204.6,2.85Z" />
        <polygon class="cls-1" points="199.61 4.75 199.7 4.41 198.96 5.25 199.61 4.75" />
        <path class="cls-1" d="M194.94,4.73c.44,1.43,1.69-.23,2.52.28l.14.33L198,4.19C197,4.37,195.65,5.13,194.94,4.73Z" />
        <path class="cls-1" d="M192.45,1.65c.15.55-.54.47.58.17a.76.76,0,0,1-.1-.14A1.79,1.79,0,0,1,192.45,1.65Z" />
        <path class="cls-1" d="M192.93,1.68c.49,0-.33-.47,0,0Z" />
        <path class="cls-1" d="M190.66,2l.64-.5c-.13-.33-.71-.4-.49-.64C190.14,1.13,190.28,1.46,190.66,2Z" />
        <path class="cls-1" d="M190,3l.34-.21C190.32,2.69,190.23,2.64,190,3Z" />
        <path class="cls-1" d="M191.09,2.39l-.71.44c.09.23.1.69.32-.16C190.65,3.09,190.79,2.69,191.09,2.39Z" />
        <path class="cls-1" d="M191.49,2.6c.37.32.83.51.18,1C192.91,3.41,192.73,2.4,191.49,2.6Z" />
        <path class="cls-1" d="M194.7,6.21l.49.42.42-.48C195.4,6.39,194.67,5.76,194.7,6.21Z" />
        <path class="cls-1" d="M186.62,1.26a7.39,7.39,0,0,0,.27,1.2l.48-.35C187.12,1.9,186.65,1.71,186.62,1.26Z" />
        <path class="cls-1" d="M186.89,2.46l-.72.52C186.81,3,186.93,2.79,186.89,2.46Z" />
        <polygon class="cls-1" points="189.93 4.63 191.1 3.53 189.7 4.64 189.93 4.63" />
        <polygon class="cls-1" points="183.89 1.22 184.29 0.52 183.57 1.58 183.89 1.22" />
        <path class="cls-1" d="M182.07,1.34c.31-.58-.41-1-.09-1.34a2.76,2.76,0,0,0-1.29,1.05C181.09.8,181.52.87,182.07,1.34Z" />
        <path class="cls-1" d="M180.05,1.71a4.06,4.06,0,0,0,.64-.66A2.25,2.25,0,0,0,180.05,1.71Z" />
        <path class="cls-1" d="M185,2.83a1.27,1.27,0,0,0-.56-.87l.28.86Z" />
        <path class="cls-1" d="M184.68,2.84v0l-.61,0Z" />
        <path class="cls-1" d="M185,2.83H185C185,2.91,185,2.94,185,2.83Z" />
        <path class="cls-1" d="M188.05,3.85c-.42.48-1.3,1-.45,1.72C187.9,5,187.42,4.57,188.05,3.85Z" />
        <path class="cls-1" d="M185.37,3.9l.76.2c0-.23-.15-.56.06-.8Z" />
        <polygon class="cls-1" points="185 4.17 185.37 3.9 185.09 3.83 185 4.17" />
        <path class="cls-1" d="M181.36,2.51a1.55,1.55,0,0,1-1.1.46,3.68,3.68,0,0,0,1.31.26C181.63,3,181.82,2.48,181.36,2.51Z" />
        <path class="cls-1" d="M183,2.75l-.07,0C182.94,2.87,183,2.89,183,2.75Z" />
        <path class="cls-1" d="M176.27,3l.06.15c0-.05,0-.1,0-.15Z" />
        <path class="cls-1" d="M181.65,3.39c.32.16.52-.05.7-.31a2.46,2.46,0,0,1-.78.15C181.55,3.35,181.54,3.43,181.65,3.39Z" />
        <path class="cls-1" d="M178.94,2.11a3.58,3.58,0,0,0,.56.47C179.34,2.31,179,1.89,178.94,2.11Z" />
        <path class="cls-1" d="M182.79,2.56a.1.1,0,0,1,.05,0C182.73,2.34,182.74,2.43,182.79,2.56Z" />
        <path class="cls-1" d="M182.79,2.56a2.28,2.28,0,0,0-.44.52,1.81,1.81,0,0,0,.55-.29A1.23,1.23,0,0,1,182.79,2.56Z" />
        <path class="cls-1" d="M175.06,8.45c.05-.79.91-1.52,1.66-.67.73-.6.25-3.2-.39-4.66,0,.35,0,.67-.77,1.13.26.44,1.66,1,1,1.73-1,.41-.81-.28-1.3-.7.41,1-1.26,1.44-1,2.89l.87-.51C175.13,7.89,174.81,8.25,175.06,8.45Z" />
        <path class="cls-1" d="M177.76,3.2l.31-.1c-.35-.13-.6-.45-1.07-1.07a1.34,1.34,0,0,0-.65.94l1.52.11Z" />
        <path class="cls-1" d="M179.46,3.1c-.24.86-1,1.23-.53,2.16.91-.06.64-.72,1.18-1.09-1.47.21.42-.48-.64-1a2.47,2.47,0,0,1,.79-.23,3.9,3.9,0,0,1-.76-.39l0,0h0c.07.11.09.18,0,.11l0,0a1.6,1.6,0,0,1-.07.33c-.42-.18-.07-.23.07-.33s0-.08,0-.13h0l-1.47.47A2.85,2.85,0,0,0,179.46,3.1Z" />
        <path class="cls-1" d="M186.82,7.42a.37.37,0,0,1,0-.2C186.68,7.33,186.64,7.4,186.82,7.42Z" />
        <path class="cls-1" d="M186.22,6.9c.1-.12.19-.46.54-.37.3.26,0,.41,0,.69.21-.22.73-.61.08-1l-.11.11c-.59-.29-1.34-1.37-1.24-1.49A7.31,7.31,0,0,0,186.22,6.9Z" />
        <path class="cls-1" d="M182.8,5.22l-1.23.42.63.75,0-.45C182.86,6.12,182.71,5.57,182.8,5.22Z" />
        <polygon class="cls-1" points="176.13 2.54 176.29 1.63 175.58 2.91 176.13 2.54" />
        <polygon class="cls-1" points="174.54 2.65 174.6 1.85 174.18 2.33 174.54 2.65" />
        <path class="cls-1" d="M85,12.47l-.36.22A1.06,1.06,0,0,0,85,12.47Z" />
        <path class="cls-1" d="M87.59,12.52l.06-.39C87.53,12.35,87.48,12.5,87.59,12.52Z" />
        <path class="cls-1" d="M135.57,2.74c-.53-.74-1.11-1.89-1-1l.16.87A.8.8,0,0,1,135.57,2.74Z" />
        <path class="cls-1" d="M108.88,7.92c0,.08.1.17.15.26l.35-.83Z" />
        <path class="cls-1" d="M108.51,11.51l-.69-.56A2.29,2.29,0,0,0,108.51,11.51Z" />
        <path class="cls-1" d="M70.8,13.39l-.42.88C71,14.27,70.75,13.82,70.8,13.39Z" />
        <path class="cls-1" d="M158.29,3a2.39,2.39,0,0,0-1.13-.53C157.71,2.94,158.14,3.69,158.29,3Z" />
        <path class="cls-1" d="M86,3.26a.6.6,0,0,0-.3.53C85.93,3.64,86.06,3.47,86,3.26Z" />
        <path class="cls-1" d="M155.86,2.45c.08.08.16.13.24.2a1.89,1.89,0,0,1,1.06-.21C156.76,2.07,156.3,1.84,155.86,2.45Z" />
        <path class="cls-1" d="M19.35,12.67a1.2,1.2,0,0,1-.12-.11C19.22,12.68,19.27,12.69,19.35,12.67Z" />
        <path class="cls-1" d="M4.36,3.91A2.68,2.68,0,0,1,5,3.85C4.86,3.79,4.68,3.79,4.36,3.91Z" />
        <path class="cls-1" d="M168.16,2.27c.33-.06.05-.1,0,0Z" />
        <path class="cls-1" d="M169.79,5.7a.75.75,0,0,0-.13.42A.94.94,0,0,1,169.79,5.7Z" />
        <path class="cls-1" d="M152.51,7.85h0C152.58,8,152.56,8,152.51,7.85Z" />
        <path class="cls-1" d="M168.66,2.66a1.82,1.82,0,0,0-.43-.26A1.41,1.41,0,0,0,168.66,2.66Z" />
        <path class="cls-1" d="M168.59,2.25l.3.09C168.93,2.19,168.89,2.1,168.59,2.25Z" />
        <path class="cls-1" d="M167.69,2.31a1.39,1.39,0,0,1,.54.09c-.06,0-.09-.1-.07-.13Z" />
        <path class="cls-1" d="M46.92,10.35a.71.71,0,0,1-.07-.09C46.51,10.62,46.66,10.57,46.92,10.35Z" />
        <path class="cls-1" d="M126.81,11.75s0,0,0-.05a.09.09,0,0,1,0,0Z" />
        <path class="cls-1" d="M125.6,12.39c.51-1.08.81-.94,1.2-.72l-.4-2.5Z" />
        <path class="cls-1" d="M78.77,12.72l.85.78c-1,1.28-1.77.84-1,1.93.12-2.71,3.3-.27,3.42-3l.56.57c-.16,0-.19.14-.35.11,1.09,1.3.81-2,2.21-1.58.49.21.83.6.5.93l1.09-.68a.24.24,0,1,1-.08.48l1.66-.22v.08a9.13,9.13,0,0,1,1-1.36c.42.39-.21.28-.11.62l.92-.66c.38.71-.38,1.39-1,1.29.86,2.71.76-.68,2.62.9l-.87.35c.56,1.54,1.24,1,2.22,1.94-.23-.5-2-2.42-1-3.1.28.21.65.3,1.19-.24,0,1,.53.73,1.19.67l0,1.28c.71-.37.65-1,1.07-1.6.79.13,1,1.12,1.14,2,1.27.2-.87-1.59.63-1.83,1,.48,1.8,0,3.06-.8.74.44-.13.78.13,1.15l.66-1c.16,0,.11.34.08.5.55-.39,0-1.28.92-1.63.23-1.4,1.78,2.06,2.85.46.27.37-.13.79,0,1.28a8.15,8.15,0,0,0,2.48-2.17l1,.84c-.76-1,.21-2.1,1.06-3a10.63,10.63,0,0,0-.66-1.07l1.36-.68c.16.21,0,.65-.2,1.18.09-.11.18-.21.25-.31.48.48.23,1.21-.11,1.93-.17-.25-.33-.52-.49-.79a5.22,5.22,0,0,0-.58,2.39.91.91,0,0,1,.44-.35.94.94,0,0,0-.1.53c0,.13.19-.15.41-.48l.31,1.43.07-.57,1.77.9c1.27-1.44,2.37-3.55,4.38-4.14-.5,1-.11,1.71-.14,2.94-.54-1.31-1.55.56-2.59.3.54.13.42.72.28.93l1.86-1.19c0,1,.39.76.88,1.18-.37-2,1.38-1.34,2.14-2,0,.67-.14,1.36-1.06,1.19,1,1.51,1.32-2.35,2.32-1.07-.23,0-.35-.08-.44.26.53-.6,1.81-.13,1.51.46h-.23c1.5.24,4.55,0,4.78-1.68a22.76,22.76,0,0,1-.29,2.39l2.67-5.72c-.24,1.46.67,4.94-.57,5.76a1.21,1.21,0,0,0,1.54-.06c-.24-.21-.6-2.11-.27-2.25.91,1.63.63.87,1.75,2.26-.36-.31,0-2.6.62-2.53a16.59,16.59,0,0,1-.16,2.5l1.43-2.25c-.36.41-.07,1.91.26,2.54-.15-.44,1.23,0,1.61-.18l-.6-.52c1.61.34,1.59-3.16,3.2-3.05-.2.47-.48,2.86.33,3.15.38-1.16,1.66-5.54,3.08-6.43l.27.66L141,4.79a42.77,42.77,0,0,1-3.62,6.8c.6.52.17.77,1.07.71.32.62-.49.94-.76,1l2.11.39c-.09-1.34,1.61-1.34,1.53-2.46L139,12.6c-.09-1.34,1.33-3.82,2.82-3.58.38.54-.28,2.39-.25,2.84.19-.46,1.42-.88,1.55-.55l-.63.72c.83.5,1.36-1.79,2.36-.5.34.08,1,1.73,1.09.93a19.88,19.88,0,0,1-.3-7.43,12,12,0,0,1,2.2,2.22c.57,1.21-.85,2.87-.37,3.9a2.05,2.05,0,0,1,.47-1c.36.31-.15,1.14.64,1,.13-1.36,1.6.12.37-1.15.77-.39.82.28,1.72.22-.29-.88.81-3,1.59-3.39a2.16,2.16,0,0,0,.21,1c1.58.12,2.42.74,3.9.75.13.33.84.73.54,1.32.21-.25.41-.71.86-.74.88,1.18-1,.18-.34,1.6.05-.79,1.17-1.09,1.82-1.59-.2-1.22-1.5-.23-2.14.26a5,5,0,0,1,2.66-4.23c1.22-.42.53,1.09.74.85,2.3.29,2-2.95,3.86-1.73.76,1.07,0,2.14.21,2.91-1,.41-1.53-.68-2.21-.64l.83.51c-.31.36-1,.63-1.34.32.63,1,3.88.18,5.65,1.08.32-.36.86-.74.6-1.17l-.56.15c-.51-.87,1.06-1.2.35-1.6.75-.61,1.59-1.57,2.65-1.08l.2,1.22c0-.35-.69-.73-1-.35.44-.55,1.62,1.66,2.11,0l-.74-.85c.75-.61,1.68-1.92,2.62-1.53-.42-1.21-.21.14-.88-1.28.58,1.77-2.4-.07-1.47,1.78-.69-1.64-1.19-.7-2.08-2.1,0,.41.32.78-.47.58a2.85,2.85,0,0,1-.17.35l-.06,0s0,0,.05,0,0,.07,0,0a1.33,1.33,0,0,1,.4.61c-.39.93-1.64.9-2.06,1.38-.47-.19.19-.46-.06-.89l-.64.71c-.06-.89-1.24-1.49-.14-2l-1,0a1.56,1.56,0,0,0-1.88-.33c-.47-.19-1.18,1-.77.29L161,3V2.78c-1.53-.11-3.16,1.49-4.91-.13a2.47,2.47,0,0,1-1.92.25L154,2.12c-.67.27-2-.78-2.28,0-.71-2.09-3.22-.45-4.38-.82l-.05,1a5.7,5.7,0,0,0-2.56.64l.06.9c-.86.73-2.21-.64-3.57-.55.09-.34.44-.25.68-.05-1.62-2-3.42,1.48-4.89,0a.57.57,0,0,1-.89,0,.14.14,0,0,0,.09,0h-.15c-.17-.15-.33-.33-.51-.47a2.11,2.11,0,0,0,.43.48,2.91,2.91,0,0,0-1.14.35l-.18-1-.09,0c-.42-.35-.34.46-.11,1.19a1.94,1.94,0,0,0-.56.58c-.34-1.56-1.1.52-1.56-1.14-.29.81-2.12.61-2.34,2.31,0-.22-.14-.33.09-.34-.47-.19-.94-.39-1.36.09l-.2-1.22-1,1.64c-.62-.74-.88-1.18-.26-2.12-1.49,1.45-1.21.55-2.48,2l.06-.79c-.45,0-1.18,1.09-1.45.44-1-1.51-5-.21-7.62-1.61.5,2.33-1.21-1-1.31.76-.16-.55-.52-.86-.1-1.34-1.32.54-2-.87-2.91.65-.15-.55.29-.81.15-1.13-.11.12-.42.48-.56.15s.19-.47.4-.71c-1.35.1-1.49,1.8-1.59,3.39-.69-.75-1-.65-1.53.4-.23-.52-.63-1.07.21-1.26-.48-.07-2.9-.76-3,.52-.15-.33-.66-.1-.78,0a8.22,8.22,0,0,0-2.21-.07l.29.21c-.41,1.54-.87.34-1.71.53l0-.16c-1.94-1.11-.84.53-2.74-.74l.1,1c-.18,2.07-1.69-1.22-2.8-.43l.4.55c-.6.71-1.68-2.8-2.29-3.06-.13-.18.21-.29.39-.42-1.59-1.22-.2,1.25-1.39,1.55-.22-.68.28-1.73-.51-1.85-.4-.55-2.31,2.2-3.4.9.24.52.48,1-.07,1.43-.85.19-2.28-2-3-.32a.67.67,0,0,1-.15-.41c-.65.42-2.1.7-2.49,1.59-.59-3.31-4,1.62-4-1.44l-2,.16.06-.31c-1.27-.2-1.72.53-2.16,1.27-.3-.21-.08-.5-.06-.66-1.85-.61-2-.48-3.59,1l-.16-1c-.42.57-2.67-1.56-4.49-.4a.84.84,0,0,1,.2-.45c-2,1.17-4.89-2.75-5.63.86l-1.35.89c1.74.28-.26,1.57.46,2.17-.69.21-1.78-1.09-.93-1.27l.13.18c.31-1.89-2.17-.67-2.12-1.95-3.43.09-6.78-1-10-1L48,4.91l-1.12-.08c-.29-.34-.39-1.15.41-1.09-.43-.82-1.35.7-1.37,1-1.56-.6.61-1.71.13-1.74l-.65.1.15.18C45,3.89,45,4.53,44,4.45c-.61-.29-.31-.9-.55-1,0-.11-.08-.16-.37,0l-1.41-.12.57,1.15c-.63.57-1.33-.06-.68,1.25-1-2-5.27-.72-5.86-1.35a3.11,3.11,0,0,1-2.81.73c.27.24.43,1.54-.5,1.38C32.73,3.81,30.7,5.32,30,3.4c.67,1.27-2.63.31-1.58,2.13-.77-.22-.05-1-.63-1.64-1.84,1-4-.67-6.32-.32,0,.35.35.89-.14,1.41l-1.2-1.76c-.45.18-.41,2-1.23.81.12.3.29.75,0,.86-4.45-1.72-9.09,1.4-13.6-1.82.61.68.2.75-.27.78C5.28,4,5,4.71,5,5.19L3.14,3.87C2.79,5.19,1.11,4,.91,5.22L1.51,5c-.8,1.5,1.11,3.32,1,5.24.89-1.7,2.35,2.51,3.81.08.32.39-.27.62-.1,1.06.37-.82.82-1,1.65-.62l-.1.2c2.33-.2,3.33.61,6,1.15l-.19-.95c.56.13.68.43.94.67.65-1.44-1.58-.09-1-1.67.75,1.93,4,0,4.47,2.22.87,0-.25-1.1.61-1.08l.23.59.22-.76c.57.12.86.86.88,1.36-.14-.06-.39.14-.54.19.73.7,2.07-.24,2.33,0l-.84-.37c2.37-.55,5.25.23,7.53-1l-.17-.45c1.74-.82,1.4.49,3.31.11l-.07.11a1.65,1.65,0,0,1,1.42-.62c-.48.52.91,1,.27,1.6,1.89-.89.94-.7,2.19-2.36l.29.74c.42-.67.46-1,1.41-1.22-.78.64.61,1.13-.27,2,2,1.63,3-1.63,3.9.74.92-2-1.73-1.14-1.22-1.58C39,9.68,40.19,8.81,40.82,9c.64.05,1.09,2.63,2.7,2.59-.16,0-.17.14-.33.13.6.53,1.18-.7,1.92.15.42-1.25,1,.07,1.08-1.52l-1.48.37c.84-.41,1.63-2.27,3-1.37a3,3,0,0,1-.8,1c.4.46.78-.31,1.19.17-.12,1.58-1.79.34-2.69,1.55.43.67,1.7-1.15,1.25.57.65-2.19,1.58.27,2.68-1.39l-.08.95c.18-.15.53-.6.85-.58l-.57,1.23c.88-1,1.7.92,2.55.35-1.78,0-.4-1.14-1.15-1.84,2.19-1.27,1.26,2.49,3.71,2-.33.13-1.25-.57-.73-1a2.94,2.94,0,0,1,1.37,1.06c1.62-.2-.25-1,.44-1.56.55,1.16.8-.47,1.51-.84v1c1.85.62.49-2,2.15-1.26l-.7,1.34.87-.35-.18,1.1c.94-.81,1.24-.6,2.16-.3-.21-.68.12-1.75.94-1.78.56.58-.31.92.85.78-.26.61-.55,1.36-1.05.47-.06.32-.26.61-.32.92.61.66,1.52.15,1.94.14a.74.74,0,0,1-.46-.22l1.69-1.34c.26.36,0,.65-.16.94.34-.11.58-.55,1.08-.63-.13.78-.1,1.59-.81,2l1.61-.87c.1.34.82.94.61,1.23.89.46,2.18-1.53,3.36-.92a.81.81,0,0,1,.44-.41c1.1.18,2.09,1.14,3.4.07l.75,1.4c1-.32-1-1.77.7-2.3,1.21-.45.45,1.2.88,1.59.6-.71,1.65-2.15,2.76-1C79.4,12.82,79.12,12.61,78.77,12.72Zm12.69-.63c-.25.21-.74.83-.92.26C90.82,11.25,91,11.78,91.46,12.09Zm19.28-2.32c-.18.32-.46.16-.78-.2A.76.76,0,0,1,110.74,9.77Zm53.73-6.72,0,.05C163.89,2.72,164.09,2.87,164.47,3.05Zm1.14.42a.37.37,0,0,0,0-.4c-.08.24-.33.26-.62.19C165.12,3.51,165.27,3.69,165.61,3.47ZM43.32,3.85l.22.25C43,4.38,43.18,4.13,43.32,3.85Z" />
        <path class="cls-1" d="M108.56,11.09a1.78,1.78,0,0,1-.11-.52A.37.37,0,0,0,108.56,11.09Z" />
        <path class="cls-1" d="M70.88,13.22h0a1.16,1.16,0,0,0,0,.18Z" />
        <path class="cls-1" d="M148,11.65a1.09,1.09,0,0,1-.46-.5C147.5,11.39,147.61,11.59,148,11.65Z" />
        <path class="cls-1" d="M171.64,1.83l-.73.25c.35,0,.48.17.66.32C171.55,2.17,171.41,1.85,171.64,1.83Z" />
        <path class="cls-1" d="M178,7.8c.11-.12.23,0,.33-.13l0-.45C177.82,7.25,177.5,7.61,178,7.8Z" />
        <path class="cls-1" d="M172.31,5c.06.81.52.53,1,.38h-.09C173.4,4.29,172.86,4.66,172.31,5Z" />
        <path class="cls-1" d="M173.46,5.4a.94.94,0,0,1,.47,0C174,4.92,173.74,5.28,173.46,5.4Z" />
        <path class="cls-1" d="M167.05,2.93c.24.21.15-1,.29-.7C167.61,1.19,165.72,3.48,167.05,2.93Z" />
        <polygon class="cls-1" points="172.73 7.71 172.54 6.71 172.26 7.52 172.73 7.71" />
        <path class="cls-1" d="M168.69,7l.82.27a.37.37,0,0,1,.22-.34C169.23,6.88,168.68,6.68,168.69,7Z" />
        <path class="cls-1" d="M169.73,6.91a.8.8,0,0,0,.66-.16A1.66,1.66,0,0,0,169.73,6.91Z" />
        <polygon class="cls-1" points="171.61 8.01 171.37 7.8 170.79 7.73 171.61 8.01" />
        <path class="cls-1" d="M159.92,6.78l-.89.29c-.09.34.15.55.48.42S160.05,7.12,159.92,6.78Z" />
        <path class="cls-1" d="M162.61,9.53c-.24-.21-.25-.43-.39-.76l0,1.24Z" />
        <path class="cls-1" d="M160,9.82c-.08.34-1.29,1-.16.91C159.94,10.39,160.83,10.1,160,9.82Z" />
        <polygon class="cls-1" points="146.59 8.25 146.82 8.23 146.78 6.19 146.59 8.25" />
        <path class="cls-1" d="M134.76,13.12c1.05.49.25-1.26,1.2-.65.25-.48-.78-.5-.52-.91C134.8,12.07,134.46,11.78,134.76,13.12Z" />
        <path class="cls-1" d="M135.44,11.56a2.28,2.28,0,0,0,.32-.31A1,1,0,0,0,135.44,11.56Z" />
        <polygon class="cls-1" points="1.87 2.82 1.19 2.39 1.63 3.08 1.87 2.82" />
        <path class="cls-1" d="M.57,4.33.41,3,0,4.21C.15,4.15.45,4,.57,4.33Z" />
        <path class="cls-1" d="M93.34,14.71l.06-.31c-.11-.34-.27-.37-.59-.42Z" />
        <polygon class="cls-1" points="84.14 13.74 84.29 13.76 84 12.59 84.14 13.74" />
        <path class="cls-1" d="M76.41,15.23c.31,0,.68-.21,1-.16C76.72,15.28,76.32,13.77,76.41,15.23Z" />
    </clipPath>
    <path clip-path="url(#btn_line)" class="cliping" d="M8.58,9.88s-9.21,1.37,45.9,5.21S218.5,8,218.5,8"/>
</svg>
